<svg xmlns="http://www.w3.org/2000/svg" width="50" height="50" viewBox="0 0 50 50">
  <rect width="50" height="50" rx="10" fill="#eef2ff"/>
  <g transform="translate(0,50) scale(0.1,-0.1)" fill="#2446f5" stroke="none">
    <path d="M224 485 c-5 -11 -23 -15 -73 -15 -39 0 -72 -5 -79 -12 -17 -17 -17 -409 0 -426 17 -17 339 -17 356 0 17 17 17 409 0 426 -7 7 -40 12 -79 12 -50 0 -68 4 -73 15 -3 8 -15 15 -26 15 -11 0 -23 -7 -26 -15z m42 -20 c4 -8 15 -15 25 -15 10 0 19 -4 19 -10 0 -6 -27 -10 -60 -10 -33 0 -60 4 -60 10 0 6 9 10 19 10 10 0 21 7 25 15 3 8 10 15 16 15 6 0 13 -7 16 -15z m-96 -35 c0 -18 7 -20 80 -20 73 0 80 2 80 20 0 17 7 20 45 20 l45 0 0 -205 0 -205 -170 0 -170 0 0 205 0 205 45 0 c38 0 45 -3 45 -20z"/>
    <path d="M350 323 c0 -5 -7 -17 -15 -27 -12 -16 -17 -17 -30 -6 -23 19 -31 3 -10 -20 10 -11 21 -20 24 -20 6 0 51 66 51 75 0 8 -20 6 -20 -2z"/>
    <path d="M130 290 c0 -6 27 -10 60 -10 33 0 60 4 60 10 0 6 -27 10 -60 10 -33 0 -60 -4 -60 -10z"/>
    <path d="M350 193 c0 -5 -7 -17 -15 -27 -12 -16 -17 -17 -30 -6 -23 19 -31 3 -10 -20 10 -11 21 -20 24 -20 6 0 51 66 51 75 0 8 -20 6 -20 -2z"/>
    <path d="M130 160 c0 -6 27 -10 60 -10 33 0 60 4 60 10 0 6 -27 10 -60 10 -33 0 -60 -4 -60 -10z"/>
  </g>
</svg>