<svg xmlns="http://www.w3.org/2000/svg" width="50" height="50" viewBox="0 0 50 50">
  <rect width="50" height="50" rx="10" fill="#f1e8ff"/>
  <g transform="translate(0,50) scale(0.1,-0.1)" fill="#7c3aed" stroke="none">
    <path d="M265 450 c-4 -6 -4 -22 -1 -36 5 -20 12 -25 34 -22 23 2 27 8 27 33 0 25 -4 31 -27 33 -14 2 -29 -2 -33 -8z m45 -26 c0 -17 -22 -14 -28 4 -2 7 3 12 12 12 9 0 16 -7 16 -16z"/>
    <path d="M154 426 c-3 -8 -12 -12 -19 -10 -7 3 -22 -3 -32 -14 -44 -48 -63 -75 -63 -90 0 -8 -5 -31 -12 -49 -10 -27 -10 -38 0 -53 7 -11 12 -33 12 -48 0 -26 34 -72 54 -72 4 0 19 -9 33 -20 34 -27 59 -25 88 5 24 23 25 28 25 175 0 85 -5 160 -10 171 -13 23 -68 26 -76 5z m-19 -89 c12 -10 14 -16 7 -21 -15 -9 -54 12 -47 25 8 12 18 11 40 -4z m-35 -46 c0 -14 -18 -23 -30 -16 -6 4 -8 11 -5 16 8 12 35 12 35 0z m60 -51 c0 -32 -30 -70 -55 -70 -21 0 -19 5 10 34 14 14 25 34 25 46 0 11 5 20 10 20 6 0 10 -13 10 -30z"/>
    <path d="M372 398 c-7 -7 -12 -21 -12 -33 0 -30 -19 -45 -57 -45 -18 0 -33 -4 -33 -10 0 -19 76 -11 95 10 10 11 21 17 25 15 12 -8 38 5 44 21 15 38 -34 70 -62 42z m38 -22 c0 -8 -4 -17 -9 -21 -12 -7 -24 12 -16 25 9 15 25 12 25 -4z"/>
    <path d="M410 275 c-9 -10 -32 -15 -76 -15 -36 0 -64 -4 -64 -10 0 -6 27 -10 62 -10 44 0 67 -5 80 -17 33 -30 76 18 48 52 -16 19 -34 19 -50 0z m35 -35 c-5 -8 -11 -8 -17 -2 -6 6 -7 16 -3 22 5 8 11 8 17 2 6 -6 7 -16 3 -22z"/>
    <path d="M270 190 c0 -5 15 -10 33 -10 38 0 57 -15 57 -45 0 -43 50 -62 70 -26 5 11 7 26 4 35 -6 16 -32 29 -44 21 -4 -2 -15 4 -25 15 -19 21 -95 29 -95 10z m140 -66 c0 -16 -16 -19 -25 -4 -8 13 4 32 16 25 5 -4 9 -13 9 -21z"/>
    <path d="M264 85 c-8 -32 6 -48 37 -43 19 2 24 9 24 33 0 25 -4 31 -27 33 -22 3 -29 -2 -34 -23z m46 -10 c0 -8 -7 -15 -15 -15 -16 0 -20 12 -8 23 11 12 23 8 23 -8z"/>
  </g>
</svg>